<mxfile host="app.diagrams.net" modified="2021-05-22T10:13:12.426Z" agent="5.0 (Windows)" etag="Nn76C6XtKHMYQrx9JJv_" version="14.6.3" type="github">
  <diagram id="dQIsrqYc9POfJ0dJJoJ2" name="Page-1">
    <mxGraphModel dx="868" dy="479" grid="1" gridSize="10" guides="1" tooltips="1" connect="1" arrows="1" fold="1" page="1" pageScale="1" pageWidth="850" pageHeight="1100" math="0" shadow="0">
      <root>
        <mxCell id="0" />
        <mxCell id="1" parent="0" />
        <mxCell id="7SgFVv0NQRkYUgfHvSGJ-4" style="edgeStyle=orthogonalEdgeStyle;rounded=0;orthogonalLoop=1;jettySize=auto;html=1;exitX=0.5;exitY=1;exitDx=0;exitDy=0;exitPerimeter=0;entryX=0.5;entryY=0;entryDx=0;entryDy=0;" edge="1" parent="1" source="7SgFVv0NQRkYUgfHvSGJ-1" target="7SgFVv0NQRkYUgfHvSGJ-2">
          <mxGeometry relative="1" as="geometry" />
        </mxCell>
        <mxCell id="7SgFVv0NQRkYUgfHvSGJ-1" value="&lt;div&gt;START&lt;/div&gt;" style="strokeWidth=2;html=1;shape=mxgraph.flowchart.start_1;whiteSpace=wrap;" vertex="1" parent="1">
          <mxGeometry x="375" y="20" width="100" height="60" as="geometry" />
        </mxCell>
        <mxCell id="7SgFVv0NQRkYUgfHvSGJ-5" style="edgeStyle=orthogonalEdgeStyle;rounded=0;orthogonalLoop=1;jettySize=auto;html=1;exitX=0.5;exitY=1;exitDx=0;exitDy=0;entryX=0.5;entryY=0;entryDx=0;entryDy=0;entryPerimeter=0;" edge="1" parent="1" source="7SgFVv0NQRkYUgfHvSGJ-2" target="7SgFVv0NQRkYUgfHvSGJ-3">
          <mxGeometry relative="1" as="geometry" />
        </mxCell>
        <mxCell id="7SgFVv0NQRkYUgfHvSGJ-2" value="&lt;div&gt;USER MENEMPELKAN ID CARD PADA SENSOR RFID&lt;/div&gt;&lt;div&gt;&lt;br&gt;&lt;/div&gt;" style="rounded=1;whiteSpace=wrap;html=1;absoluteArcSize=1;arcSize=14;strokeWidth=2;" vertex="1" parent="1">
          <mxGeometry x="333" y="120" width="185" height="70" as="geometry" />
        </mxCell>
        <mxCell id="7SgFVv0NQRkYUgfHvSGJ-8" style="edgeStyle=orthogonalEdgeStyle;rounded=0;orthogonalLoop=1;jettySize=auto;html=1;exitX=1;exitY=0.5;exitDx=0;exitDy=0;exitPerimeter=0;entryX=0;entryY=0.5;entryDx=0;entryDy=0;" edge="1" parent="1" source="7SgFVv0NQRkYUgfHvSGJ-3" target="7SgFVv0NQRkYUgfHvSGJ-6">
          <mxGeometry relative="1" as="geometry" />
        </mxCell>
        <mxCell id="7SgFVv0NQRkYUgfHvSGJ-11" style="edgeStyle=orthogonalEdgeStyle;rounded=0;orthogonalLoop=1;jettySize=auto;html=1;exitX=0.5;exitY=1;exitDx=0;exitDy=0;exitPerimeter=0;entryX=0.5;entryY=0;entryDx=0;entryDy=0;" edge="1" parent="1" source="7SgFVv0NQRkYUgfHvSGJ-3" target="7SgFVv0NQRkYUgfHvSGJ-10">
          <mxGeometry relative="1" as="geometry" />
        </mxCell>
        <mxCell id="7SgFVv0NQRkYUgfHvSGJ-3" value="APAKAH ID CARD TERDAFTAR?" style="strokeWidth=2;html=1;shape=mxgraph.flowchart.decision;whiteSpace=wrap;" vertex="1" parent="1">
          <mxGeometry x="353" y="240" width="145" height="130" as="geometry" />
        </mxCell>
        <mxCell id="7SgFVv0NQRkYUgfHvSGJ-6" value="PINTU TIDAK AKAN TERBUKA" style="shape=parallelogram;perimeter=parallelogramPerimeter;whiteSpace=wrap;html=1;fixedSize=1;strokeWidth=2;" vertex="1" parent="1">
          <mxGeometry x="590" y="272.5" width="160" height="65" as="geometry" />
        </mxCell>
        <mxCell id="7SgFVv0NQRkYUgfHvSGJ-9" value="TIDAK" style="text;html=1;align=center;verticalAlign=middle;resizable=0;points=[];autosize=1;strokeColor=none;" vertex="1" parent="1">
          <mxGeometry x="505" y="290" width="50" height="20" as="geometry" />
        </mxCell>
        <mxCell id="7SgFVv0NQRkYUgfHvSGJ-14" style="edgeStyle=orthogonalEdgeStyle;rounded=0;orthogonalLoop=1;jettySize=auto;html=1;exitX=0.5;exitY=1;exitDx=0;exitDy=0;entryX=0.5;entryY=0;entryDx=0;entryDy=0;entryPerimeter=0;" edge="1" parent="1" source="7SgFVv0NQRkYUgfHvSGJ-10" target="7SgFVv0NQRkYUgfHvSGJ-13">
          <mxGeometry relative="1" as="geometry" />
        </mxCell>
        <mxCell id="7SgFVv0NQRkYUgfHvSGJ-10" value="PINTU TERBUKA" style="shape=parallelogram;perimeter=parallelogramPerimeter;whiteSpace=wrap;html=1;fixedSize=1;strokeWidth=2;" vertex="1" parent="1">
          <mxGeometry x="357.75" y="440" width="135.5" height="70" as="geometry" />
        </mxCell>
        <mxCell id="7SgFVv0NQRkYUgfHvSGJ-12" value="&lt;div&gt;YA&lt;/div&gt;" style="text;html=1;align=center;verticalAlign=middle;resizable=0;points=[];autosize=1;strokeColor=none;" vertex="1" parent="1">
          <mxGeometry x="385" y="390" width="30" height="20" as="geometry" />
        </mxCell>
        <mxCell id="7SgFVv0NQRkYUgfHvSGJ-13" value="FINISH" style="strokeWidth=2;html=1;shape=mxgraph.flowchart.start_1;whiteSpace=wrap;" vertex="1" parent="1">
          <mxGeometry x="375" y="570" width="100" height="60" as="geometry" />
        </mxCell>
      </root>
    </mxGraphModel>
  </diagram>
</mxfile>
